<svg width="26" height="22" viewBox="0 0 26 22" fill="none" xmlns="http://www.w3.org/2000/svg">
<path d="M24.4282 0.209565H21.2269V2.61004C21.2269 2.84122 21.1813 3.07013 21.0928 3.2837C21.0044 3.49728 20.8747 3.69134 20.7112 3.8548C20.5477 4.01827 20.3536 4.14793 20.14 4.2364C19.9263 4.32486 19.6974 4.3704 19.4662 4.3704C19.235 4.3704 19.006 4.32486 18.7924 4.2364C18.5788 4.14793 18.3847 4.01827 18.2212 3.8548C18.0577 3.69134 17.928 3.49728 17.8395 3.2837C17.751 3.07013 17.7055 2.84122 17.7055 2.61004V0.209565H8.38173V2.61004C8.38173 3.07692 8.19623 3.52467 7.86604 3.8548C7.53584 4.18493 7.088 4.3704 6.62103 4.3704C6.15406 4.3704 5.70622 4.18493 5.37602 3.8548C5.04583 3.52467 4.86033 3.07692 4.86033 2.61004V0.209565H1.65904C1.46859 0.207398 1.27963 0.243439 1.10334 0.315556C0.927061 0.387673 0.767033 0.494402 0.632724 0.62943C0.498415 0.764458 0.392553 0.925043 0.321399 1.10169C0.250246 1.27833 0.215245 1.46745 0.218467 1.65785V19.5654C0.215288 19.7525 0.248995 19.9383 0.317664 20.1123C0.386332 20.2864 0.488618 20.4452 0.618677 20.5796C0.748736 20.7141 0.904021 20.8217 1.07566 20.8962C1.24731 20.9707 1.43194 21.0106 1.61903 21.0137H24.4282C24.6152 21.0106 24.7999 20.9707 24.9715 20.8962C25.1432 20.8217 25.2984 20.7141 25.4285 20.5796C25.5586 20.4452 25.6609 20.2864 25.7295 20.1123C25.7982 19.9383 25.8319 19.7525 25.8287 19.5654V1.65785C25.8319 1.47081 25.7982 1.28497 25.7295 1.11095C25.6609 0.936926 25.5586 0.778136 25.4285 0.643644C25.2984 0.509153 25.1432 0.401595 24.9715 0.327115C24.7999 0.252634 24.6152 0.212691 24.4282 0.209565ZM6.62103 16.2128H5.02039V14.6124H6.62103V16.2128ZM6.62103 12.212H5.02039V10.6116H6.62103V12.212ZM6.62103 8.21117H5.02039V6.61085H6.62103V8.21117ZM11.423 16.2128H9.82231V14.6124H11.423V16.2128ZM11.423 12.212H9.82231V10.6116H11.423V12.212ZM11.423 8.21117H9.82231V6.61085H11.423V8.21117ZM16.2249 16.2128H14.6242V14.6124H16.2249V16.2128ZM16.2249 12.212H14.6242V10.6116H16.2249V12.212ZM16.2249 8.21117H14.6242V6.61085H16.2249V8.21117ZM21.0268 16.2128H19.4262V14.6124H21.0268V16.2128ZM21.0268 12.212H19.4262V10.6116H21.0268V12.212ZM21.0268 8.21117H19.4262V6.61085H21.0268V8.21117Z" fill="white"/>
</svg>
