<?xml version="1.0" standalone="no"?>
<!DOCTYPE svg PUBLIC "-//W3C//DTD SVG 20010904//EN"
 "http://www.w3.org/TR/2001/REC-SVG-20010904/DTD/svg10.dtd">
<svg version="1.0" xmlns="http://www.w3.org/2000/svg"
 width="300.000000pt" height="300.000000pt" viewBox="0 0 300.000000 300.000000"
 preserveAspectRatio="xMidYMid meet">

<g transform="translate(0.000000,300.000000) scale(0.100000,-0.100000)"
fill="#000000" stroke="none">
<path d="M755 2969 c-75 -11 -201 -52 -280 -91 -216 -109 -385 -325 -436 -558
-18 -82 -20 -119 -16 -275 2 -99 9 -193 14 -210 6 -16 16 -55 23 -85 36 -163
154 -388 298 -566 348 -432 1076 -1163 1159 -1164 40 0 535 475 743 714 52 60
124 141 160 181 171 188 231 262 307 375 121 181 201 349 229 483 39 189 41
454 3 597 -58 220 -209 413 -401 513 -138 71 -244 96 -413 97 -144 0 -197 -11
-292 -58 -87 -43 -121 -69 -184 -137 -64 -70 -94 -117 -130 -200 -14 -33 -32
-61 -41 -63 -9 -2 -30 30 -62 93 -95 193 -272 329 -459 354 -89 12 -136 12
-222 0z m1545 -31 c425 -71 682 -424 657 -903 -17 -300 -62 -439 -223 -680
-110 -163 -186 -256 -478 -580 -282 -313 -700 -715 -743 -715 -40 0 -438 375
-770 725 -255 269 -365 399 -468 555 -171 257 -226 435 -226 741 0 103 4 194
11 220 28 108 35 127 61 181 121 251 358 416 654 456 86 12 229 0 305 -25 139
-47 269 -174 357 -351 31 -62 60 -109 64 -105 4 4 33 58 63 120 93 185 195
279 377 347 88 34 214 38 359 14z"/>
</g>
</svg>
