<?xml version="1.0" encoding="utf-8"?>
<!-- Generator: Adobe Illustrator 16.0.0, SVG Export Plug-In . SVG Version: 6.00 Build 0)  -->
<!DOCTYPE svg PUBLIC "-//W3C//DTD SVG 1.1//EN" "http://www.w3.org/Graphics/SVG/1.1/DTD/svg11.dtd">
<svg version="1.1" id="Layer_2" xmlns="http://www.w3.org/2000/svg" xmlns:xlink="http://www.w3.org/1999/xlink" x="0px" y="0px"
	 width="198.43px" height="198.43px" viewBox="0 0 198.43 198.43" enable-background="new 0 0 198.43 198.43" xml:space="preserve">
<g>
	<path d="M172.848,45.97c-1.24-1.508-11.934-13.844-29.696-13.844c-8.742,0-17.726,3.034-26.768,9.063
		c-0.511,0.365-11.225,8.053-17.239,15.135c-5.566-6.959-21.914-24.75-43.556-24.75c-10.315,0-20.388,4.106-29.938,12.205
		l-0.167,0.155c-0.283,0.289-6.981,7.196-10.383,17.98c-3.169,10.046-3.956,25.407,10.294,41.54l72.736,75.232
		c0.227,0.113,0.44,0.24,0.637,0.385c0.176-0.017,0.354-0.03,0.541-0.03c0.05,0,0.097,0.004,0.145,0.007
		c0.194-0.12,0.402-0.224,0.622-0.315l75.658-77.154l0.193-0.223C176.158,101.058,198.583,71.327,172.848,45.97z M172.053,98.192
		l-72.908,74.349l-70.039-72.438C5.395,73.21,27.26,49.312,28.98,47.512c8.592-7.258,17.544-10.938,26.609-10.938
		c23.685,0,41.311,25.048,41.486,25.301l1.208,1.743c0.137,0.106,0.252,0.23,0.373,0.35c0.22,0.043,0.424,0.106,0.625,0.174
		c0.202-0.144,0.418-0.272,0.651-0.383l1.28-1.92c4.609-6.914,17.944-16.485,18.012-16.535c8.14-5.426,16.189-8.178,23.928-8.178
		c16.039,0,25.791,11.964,25.885,12.081l0.209,0.233C191.432,71.181,173.636,96.078,172.053,98.192z"/>
</g>
</svg>
